<svg width="17" height="17" viewBox="0 0 17 17" fill="none" xmlns="http://www.w3.org/2000/svg">
<path d="M10.9313 11.7514C10.8447 11.5895 10.676 11.4883 10.4921 11.4883H9.99408V8.99805C9.99408 8.72276 9.77132 8.5 9.49604 8.5H7.50385C7.22856 8.5 7.0058 8.72276 7.0058 8.99805V11.4883H6.50776C6.32391 11.4883 6.15514 11.5895 6.06854 11.7514C5.98195 11.9134 5.99171 12.1099 6.09335 12.2626L8.08553 15.2509C8.17794 15.3895 8.33359 15.4727 8.49991 15.4727C8.66622 15.4727 8.82188 15.3895 8.91428 15.2509L10.9065 12.2626C11.0081 12.1098 11.0178 11.9133 10.9313 11.7514Z" fill="white"/>
<path d="M14.4585 5.82509C14.4147 5.22989 14.1731 4.67463 13.7475 4.24907C13.1036 3.60523 12.1348 3.41305 11.2839 3.65058C10.4655 2.33461 9.05761 1.52734 7.50391 1.52734C5.16833 1.52734 3.24474 3.32254 3.04386 5.64742C1.30116 6.08759 0 7.6746 0 9.49609C0 11.693 1.82063 13.4805 4.01758 13.4805H5.70821L5.26465 12.8151C4.95872 12.3555 4.93003 11.768 5.19025 11.2821C5.36924 10.9469 5.66349 10.6994 6.0098 10.5773V8.99805C6.0098 8.17414 6.68004 7.50391 7.50394 7.50391H9.49613C10.32 7.50391 10.9903 8.17414 10.9903 8.99805V10.5773C11.3366 10.6994 11.6308 10.9469 11.8098 11.2821C12.07 11.768 12.0413 12.3555 11.7359 12.8146L11.2919 13.4805H12.9824C15.1794 13.4805 17 11.693 17 9.49609C17 7.85237 15.9689 6.42663 14.4585 5.82509Z" fill="white"/>
</svg>
