<svg width="200" height="40" viewBox="0 0 200 40" fill="none" xmlns="http://www.w3.org/2000/svg">
<path d="M35.5663 9.90155C33.4237 3.99438 27.7103 0 21.3398 0H0C0.0285673 7.31365 2.79961 14.3179 7.77032 19.7468L7.99885 20L7.77032 20.2532C2.79961 25.6822 0.0571347 32.6863 0 40H21.3398C27.7103 40 33.4237 36.0338 35.5663 30.0985L38.3375 22.4192C38.9086 20.8438 38.9086 19.0998 38.3375 17.4965L35.5663 9.90155ZM5.19925 10.2672C4.25654 8.10127 3.62805 5.82278 3.31381 3.48805L3.25668 3.03797H21.3398C23.8251 3.03797 26.2247 3.79747 28.2817 5.20393C29.9958 6.4135 31.3954 8.045 32.2525 9.92967L32.5097 10.4923H30.1958C22.9681 10.4923 15.9692 13.052 10.4842 17.6933L10.1985 17.9465L9.94142 17.6653C7.97029 15.443 6.37052 12.9676 5.19925 10.2672ZM32.2525 30.1547C31.3669 32.0393 29.9958 33.6708 28.2817 34.8805C26.2534 36.287 23.8537 37.0463 21.3398 37.0463H3.25668L3.31381 36.5963C3.62805 34.2617 4.25654 31.9832 5.19925 29.8172C6.37052 27.1167 7.94171 24.6413 9.94142 22.4473L10.1985 22.166L10.4842 22.4192C15.9692 27.0605 22.9397 29.6202 30.1958 29.6202H32.5097L32.2525 30.1547ZM35.0236 22.5878L33.5953 26.5823H30.1958C26.539 26.5823 22.9681 25.879 19.6258 24.4725C17.1403 23.4318 14.8265 22.0535 12.741 20.3375L12.3697 20.0282L12.741 19.7187C14.7979 18.0028 17.1119 16.6245 19.6258 15.5837C22.9681 14.2053 26.5105 13.474 30.1958 13.474H33.5953L35.0236 17.4683C35.6234 19.128 35.6234 20.9563 35.0236 22.5878Z" fill="#FC5811"/>
<path d="M81.8744 12.6025C75.8468 12.6025 70.9332 17.4408 70.9332 23.3762C70.9332 29.3113 75.8468 34.1497 81.8744 34.1497C87.9022 34.1497 92.8158 29.3113 92.8158 23.3762C92.8158 17.4408 87.9022 12.6025 81.8744 12.6025ZM81.8744 30.2678C78.018 30.2678 74.8754 27.1735 74.8754 23.3762C74.8754 19.5787 78.018 16.4844 81.8744 16.4844C85.731 16.4844 88.8736 19.5787 88.8736 23.3762C88.8736 27.1735 85.731 30.2678 81.8744 30.2678Z" fill="#1D1916"/>
<path d="M113.498 22.0534L108.87 21.1814C108.127 21.0408 105.871 20.6751 105.871 18.7061C105.871 17.8341 106.356 17.0464 107.213 16.512C107.985 16.0338 108.984 15.7806 110.07 15.7806C111.955 15.7806 113.841 16.512 115.698 17.9466L115.755 18.0029L117.983 15.3024L117.926 15.2462C115.241 13.4178 112.784 12.6301 109.956 12.6301C105.956 12.6301 101.9 14.8805 101.9 19.1843C101.9 21.8003 103.157 23.7694 109.327 24.8946L111.927 25.3728C113.898 25.7384 114.926 26.6668 114.926 28.0731C114.926 29.4796 113.127 30.9986 110.413 30.9986C108.185 30.9986 105.585 29.8734 103.785 28.1013L103.728 28.0451L101.043 30.7454L101.1 30.8018C103.957 33.1083 106.842 34.1773 110.184 34.1773C113.013 34.1773 115.355 33.3896 116.926 31.8706C118.183 30.6611 118.926 29.0296 118.926 27.3981C118.897 24.4164 117.183 22.7286 113.498 22.0534Z" fill="#1D1916"/>
<path d="M150.721 29.1703C149.664 28.5794 148.807 27.6513 148.293 26.5543C147.178 24.2194 147.293 21.6878 148.635 19.6624C149.921 17.6653 152.121 16.4839 154.52 16.4839C156.834 16.4839 159.005 17.6091 160.291 19.5218L160.348 19.5781L163.605 17.4121L163.547 17.3559C161.519 14.4023 158.148 12.6301 154.52 12.6301C150.921 12.6301 147.55 14.3742 145.522 17.3278C143.436 20.3376 143.065 24.0788 144.493 27.6231C145.407 29.9016 147.121 31.7581 149.321 32.8551C150.978 33.6709 152.749 34.0929 154.549 34.0929C158.234 34.0929 161.662 32.2644 163.662 29.2264L163.719 29.1703L160.434 27.0606L160.377 27.1168C158.263 30.2109 154.12 31.1111 150.721 29.1703Z" fill="#1D1916"/>
<path d="M67.5617 5.93579H63.5338L63.6765 6.07644C64.5049 6.92032 64.9621 8.01737 64.9621 9.19881V33.5589H68.9615V7.28601C68.9615 6.55464 68.3331 5.93579 67.5617 5.93579Z" fill="#1D1916"/>
<path d="M52.9356 5.93579H48.9076L49.0503 6.07644C49.8788 6.92032 50.3359 8.01737 50.3359 9.19881V33.5589H54.3354V7.28601C54.3354 6.55464 53.7069 5.93579 52.9356 5.93579Z" fill="#1D1916"/>
<path d="M60.3624 13.1641H56.3344L56.4773 13.3047C57.3058 14.1486 57.7627 15.2456 57.7627 16.4271V33.5578H61.7622V14.5424C61.7622 13.7829 61.1337 13.1641 60.3624 13.1641Z" fill="#1D1916"/>
<path d="M168.033 5.93579C166.634 5.93579 165.491 7.06097 165.491 8.43931C165.491 9.81764 166.634 10.9428 168.033 10.9428C169.433 10.9428 170.576 9.81764 170.576 8.43931C170.576 7.06097 169.433 5.93579 168.033 5.93579Z" fill="#1D1916"/>
<path d="M168.633 13.1934H164.605L164.747 13.334C165.576 14.1779 166.033 15.2749 166.033 16.4564V33.5872H170.032V14.5717C170.003 13.7841 169.404 13.1934 168.633 13.1934Z" fill="#1D1916"/>
<path d="M198.6 5.93579H194.571L194.715 6.07644C195.542 6.92032 196 8.01737 196 9.19881V33.5589H200V7.28601C199.971 6.55464 199.342 5.93579 198.6 5.93579Z" fill="#1D1916"/>
<path d="M189.486 13.1927V15.5556L189.344 15.3587C188.059 13.6428 185.688 12.6301 183.002 12.6301C176.432 12.6301 172.032 18.1998 172.032 23.4038C172.032 26.1041 173.061 28.7764 174.861 30.7736C176.261 32.3208 178.775 34.1773 182.802 34.1773C185.431 34.1773 187.944 33.1083 189.373 31.3924L189.515 31.2236V33.5866H193.515V13.1927H189.486ZM189.486 26.4698C188.344 28.9453 186.002 30.4641 183.344 30.4641C179.459 30.4641 176.288 27.2856 176.288 23.3756C176.288 19.4656 179.459 16.287 183.344 16.287C186.002 16.287 188.344 17.8059 189.486 20.2813V20.3094V26.4698Z" fill="#1D1916"/>
<path d="M59.7632 5.93579C58.3634 5.93579 57.2209 7.06097 57.2209 8.43931C57.2209 9.81764 58.3634 10.9428 59.7632 10.9428C61.1631 10.9428 62.3058 9.81764 62.3058 8.43931C62.3058 7.06097 61.1631 5.93579 59.7632 5.93579Z" fill="#1D1916"/>
<path d="M130.981 12.6025C124.953 12.6025 120.039 17.4408 120.039 23.3762C120.039 29.3113 124.953 34.1497 130.981 34.1497C137.008 34.1497 141.922 29.3113 141.922 23.3762C141.922 17.4408 137.008 12.6025 130.981 12.6025ZM130.981 30.2678C127.124 30.2678 123.982 27.1735 123.982 23.3762C123.982 19.5787 127.124 16.4844 130.981 16.4844C134.837 16.4844 137.98 19.5787 137.98 23.3762C138.008 27.1735 134.866 30.2678 130.981 30.2678Z" fill="#1D1916"/>
</svg>
